<svg width="79" height="80" viewBox="0 0 79 80" fill="none" xmlns="http://www.w3.org/2000/svg"><path fill-rule="evenodd" clip-rule="evenodd" d="M62 53v3a4 4 0 01-8 0V24a4 4 0 018 0v29zm2 0v3a6 6 0 01-12 0V45H27v11a6 6 0 01-12 0v-3h-2a5 5 0 01-5-5v-3H4v-8h4v-5a5 5 0 015-5h2v-3a6 6 0 0112 0v13h25V24a6 6 0 0112 0v3h2a5 5 0 015 5v5h4v8h-4v3a5 5 0 01-5 5h-2zm7-10h2v-4h-2v4zm-2-6v-5a3 3 0 00-3-3h-2v22h2a3 3 0 003-3V37zm-17 2v4H27v-4h25zM17 27v-3a4 4 0 018 0v32a4 4 0 01-8 0V27zM8 39H6v4h2v-4zm7 12V29h-2a3 3 0 00-3 3v16a3 3 0 003 3h2z" fill="#222"/></svg>