<svg width="81" height="80" viewBox="0 0 81 80" fill="none" xmlns="http://www.w3.org/2000/svg"><path fill-rule="evenodd" clip-rule="evenodd" d="M14.139 16H67.71v5.373h4.293v44.235H10V21.373h4.139V16zm53.57 43.987V23.373h2.293v40.235H12V23.373h2.139v37.614H67.71v-1zM39.925 18v40.987H16.139V18h23.785zm2 40.987H65.71V18H41.925v40.987zm-6.492-28.145h-14.78v-2h14.78v2zm-14.78 8.652h14.78v-2h-14.78v2zm14.78 8.65h-14.78v-2h14.78v2zM46.44 30.843h14.779v-2h-14.78v2zm14.779 8.652h-14.78v-2h14.78v2zm-14.78 8.65h14.78v-2h-14.78v2z" fill="#222"/></svg>